<?xml version="1.0" standalone="no"?>
<!DOCTYPE svg PUBLIC "-//W3C//DTD SVG 20010904//EN"
 "http://www.w3.org/TR/2001/REC-SVG-20010904/DTD/svg10.dtd">
<svg version="1.0" xmlns="http://www.w3.org/2000/svg"
 width="900.000000pt" height="900.000000pt" viewBox="0 0 500.000000 500.000000"
 preserveAspectRatio="xMidYMid meet">

<g transform="translate(0.000000,500.000000) scale(0.100000,-0.100000)"
fill="#000000" stroke="none">
<path d="M2382 3668 c-36 -169 -132 -809 -132 -884 0 -24 5 -22 140 55 10 5
18 32 22 72 12 115 39 301 69 481 16 97 29 194 29 215 0 59 -43 112 -91 113
-23 0 -27 -5 -37 -52z"/>
<path d="M2530 3538 c0 -13 -3 -40 -7 -61 l-6 -38 49 6 c27 4 93 2 147 -4 284
-32 254 -164 -73 -318 -179 -84 -165 -74 -164 -116 1 -21 4 -40 7 -43 3 -3 70
-14 149 -25 233 -31 388 -78 433 -130 34 -41 32 -62 -10 -108 -64 -71 -261
-153 -530 -220 -123 -31 -121 -29 -124 -133 -1 -57 -8 -56 142 -24 192 42 363
98 468 152 95 49 119 66 157 109 60 68 82 120 82 191 0 121 -71 181 -285 244
-117 34 -155 52 -155 75 0 7 38 41 84 74 131 95 175 156 162 225 -18 96 -203
165 -443 166 -79 0 -83 -1 -83 -22z"/>
<path d="M2160 3499 c-63 -16 -155 -46 -205 -66 -343 -136 -484 -358 -305
-481 43 -29 97 -43 195 -51 128 -10 239 0 272 25 35 26 83 117 90 173 l6 42
-29 -11 c-36 -14 -174 -46 -234 -54 -101 -14 -189 25 -176 78 16 65 278 200
493 256 38 10 43 14 48 48 4 20 9 45 12 55 6 25 -30 22 -167 -14z"/>
<path d="M2470 2846 c-121 -51 -278 -138 -450 -251 -257 -170 -262 -297 -14
-326 49 -5 107 -7 131 -3 40 6 43 8 43 38 0 17 3 48 6 69 l7 38 -97 -7 c-93
-7 -96 -6 -96 14 0 37 138 134 303 212 89 42 220 87 310 105 24 5 27 10 27 46
0 29 -7 47 -25 64 -31 32 -72 32 -145 1z"/>
<path d="M2309 2603 c-91 -41 -86 -28 -96 -264 -6 -151 -5 -158 16 -193 24
-38 84 -76 121 -76 19 0 20 6 20 112 0 62 5 185 11 275 6 89 9 166 8 171 -2 5
-38 -6 -80 -25z"/>
</g>
</svg>
